HIERARCHY
ROOT SpineBase
{
  OFFSET 0.000000 0.000000 0.000000
  CHANNELS 6 Xposition Yposition Zposition Zrotation Xrotation Yrotation
  JOINT SpineMid
  {
    OFFSET -0.000000 32.849482 0.000000
    CHANNELS 3 Zrotation Xrotation Yrotation
    JOINT SpineShoulder
    {
      OFFSET 0.230261 24.292466 -0.820938
      CHANNELS 3 Zrotation Xrotation Yrotation
      JOINT Neck
      {
        OFFSET 0.168177 7.996081 -0.613139
        CHANNELS 3 Zrotation Xrotation Yrotation
        JOINT Head
        {
          OFFSET 5.382585 11.969317 5.467308
          CHANNELS 3 Zrotation Xrotation Yrotation
          End Site
          {
            OFFSET 0 0 0
          }
        }
      }
      JOINT ShoulderLeft
      {
        OFFSET -3.967767 -4.626819 -15.694590
        CHANNELS 3 Zrotation Xrotation Yrotation
        JOINT ElbowLeft
        {
          OFFSET -4.150946 -25.762433 -8.085397
          CHANNELS 3 Zrotation Xrotation Yrotation
          JOINT WristLeft
          {
            OFFSET 4.743464 -25.882170 -3.114674
            CHANNELS 3 Zrotation Xrotation Yrotation
            JOINT HandLeft
            {
              OFFSET 0.426372 -7.685366 1.958646
              CHANNELS 3 Zrotation Xrotation Yrotation
              JOINT HandTipLeft
              {
                OFFSET 0.187226 -6.635602 1.901412
                CHANNELS 3 Zrotation Xrotation Yrotation
                End Site
                {
                  OFFSET 0 0 0
                }
              }
              JOINT ThumbLeft
              {
                OFFSET 3.306804 2.504455 2.960555
                CHANNELS 3 Zrotation Xrotation Yrotation
                End Site
                {
                  OFFSET 0 0 0
                }
              }
            }
          }
        }
      }
      JOINT ShoulderRight
      {
        OFFSET 5.671016 -7.956835 12.912441
        CHANNELS 3 Zrotation Xrotation Yrotation
        JOINT ElbowRight
        {
          OFFSET 0.898865 -26.235525 4.024358
          CHANNELS 3 Zrotation Xrotation Yrotation
          JOINT WristRight
          {
            OFFSET -0.441702 -25.302425 6.027990
            CHANNELS 3 Zrotation Xrotation Yrotation
            JOINT HandRight
            {
              OFFSET -1.583261 -6.034669 2.142692
              CHANNELS 3 Zrotation Xrotation Yrotation
              JOINT HandTipRight
              {
                OFFSET 0.059129 -4.451224 -1.192651
                CHANNELS 3 Zrotation Xrotation Yrotation
                End Site
                {
                  OFFSET 0 0 0
                }
              }
              JOINT ThumbRight
              {
                OFFSET 1.839803 -1.267696 -2.818665
                CHANNELS 3 Zrotation Xrotation Yrotation
                End Site
                {
                  OFFSET 0 0 0
                }
              }
            }
          }
        }
      }
    }
  }
  JOINT HipLeft
  {
    OFFSET -1.226503 0.754432 -9.908469
    CHANNELS 3 Zrotation Xrotation Yrotation
    JOINT KneeLeft
    {
      OFFSET -9.492817 -32.469711 0.740936
      CHANNELS 3 Zrotation Xrotation Yrotation
      JOINT AnkleLeft
      {
        OFFSET -9.970505 -32.442533 3.398166
        CHANNELS 3 Zrotation Xrotation Yrotation
        JOINT FootLeft
        {
          OFFSET 10.674974 -4.779555 -6.472013
          CHANNELS 3 Zrotation Xrotation Yrotation
          End Site
          {
            OFFSET 0 0 0
          }
        }
      }
    }
  }
  JOINT HipRight
  {
    OFFSET 3.454358 0.281023 2.395935
    CHANNELS 3 Zrotation Xrotation Yrotation
    JOINT KneeRight
    {
      OFFSET -7.805668 -34.968849 8.690879
      CHANNELS 3 Zrotation Xrotation Yrotation
      JOINT AnkleRight
      {
        OFFSET -12.156780 -32.134114 3.529537
        CHANNELS 3 Zrotation Xrotation Yrotation
        JOINT FootRight
        {
          OFFSET 9.992016 -5.076357 -6.248737
          CHANNELS 3 Zrotation Xrotation Yrotation
          End Site
          {
            OFFSET 0 0 0
          }
        }
      }
    }
  }
}
MOTION
Frames: 13
Frame Time: 0.033333
-103.609275 74.574897 345.255364 0.000000 0.000000 -69.172105 -0.000000 -0.000000 69.172105 -0.000000 0.000000 0.000000 -0.000000 0.000000 0.000000 0.000000 0.000000 0.000000 -0.000000 0.000000 0.000000 -0.000000 0.000000 0.000000 -0.000000 0.000000 0.000000 -0.000000 0.000000 0.000000 0.000000 0.000000 0.000000 0.000000 0.000000 0.000000 -0.000000 0.000000 0.000000 -0.000000 0.000000 0.000000 -0.000000 0.000000 0.000000 -0.000000 0.000000 0.000000 0.000000 0.000000 0.000000 0.000000 0.000000 0.000000 -0.000000 -0.000000 69.172105 -0.000000 0.000000 0.000000 -0.000000 0.000000 0.000000 0.000000 0.000000 0.000000 -0.000000 -0.000000 69.172105 -0.000000 0.000000 0.000000 -0.000000 0.000000 0.000000 0.000000 0.000000 0.000000
-103.739658 74.528544 345.113790 -0.147323 -0.370817 -69.312553 -0.294864 0.268822 69.312768 -0.000000 0.000000 0.000000 -0.000000 0.000000 0.000000 0.000000 0.000000 0.000000 -0.000000 0.000000 0.000000 0.216703 -0.819668 -0.174842 1.800129 2.644244 0.735518 1.577255 -2.211977 0.501861 0.000000 0.000000 0.000000 0.000000 0.000000 0.000000 -0.000000 0.000000 0.000000 -0.088465 -1.038111 -0.003746 -1.031923 6.751957 -1.847174 2.321529 -0.968184 1.798734 0.000000 0.000000 0.000000 0.000000 0.000000 0.000000 -0.294864 0.268822 69.312768 -0.000000 0.000000 0.000000 -0.000000 0.000000 0.000000 0.000000 0.000000 0.000000 -0.294864 0.268822 69.312768 -0.000000 0.000000 0.000000 -10.890252 -6.788588 -0.784369 0.000000 0.000000 0.000000
-103.849381 74.482466 344.932956 -0.275762 -0.684547 -69.396524 -0.543728 0.499011 69.397245 -0.000000 0.000000 0.000000 -0.000000 0.000000 0.000000 0.000000 0.000000 0.000000 0.597312 -0.555537 -0.095283 -0.128364 -0.916587 -0.223717 3.079163 5.104597 1.245338 2.762881 -4.382357 1.022643 0.000000 0.000000 0.000000 0.000000 0.000000 0.000000 -0.000000 0.000000 0.000000 -0.170733 -1.872766 -0.010728 -1.717507 12.564925 -3.333257 4.353466 -0.993020 3.473962 0.000000 0.000000 0.000000 0.000000 0.000000 0.000000 -0.543728 0.499011 69.397245 -0.000000 0.000000 0.000000 -0.000000 0.000000 0.000000 0.000000 0.000000 0.000000 -0.543728 0.499011 69.397245 -0.000000 0.000000 0.000000 -22.364532 -13.439563 -2.919000 0.000000 0.000000 0.000000
-103.938443 74.436661 344.712863 -0.385402 -0.941407 -69.422080 -0.005589 -0.034271 69.413984 -0.059247 0.025986 -0.011512 0.840502 0.073331 0.227890 0.000000 0.000000 0.000000 1.278730 0.193641 -0.128459 -0.043797 -1.230633 -0.307661 3.816775 7.350399 1.576968 3.622249 -6.499151 1.510590 0.000000 0.000000 0.000000 0.000000 0.000000 0.000000 0.478428 0.922369 0.013444 -0.247813 -2.516989 -0.020429 -2.085212 17.197533 -4.461209 5.927815 -0.555246 4.855886 0.000000 0.000000 0.000000 0.000000 0.000000 0.000000 -0.642472 1.697217 69.368412 -0.977484 -0.257503 0.050652 -0.000000 0.000000 0.000000 0.000000 0.000000 0.000000 -0.366089 1.674816 69.680247 -1.735949 -0.584959 -0.114898 -31.032807 -17.664131 -5.344117 0.000000 0.000000 0.000000
-104.006845 74.391130 344.453511 -0.476311 -1.141570 -69.388475 -0.007663 -0.040264 69.377530 -0.070142 0.029271 -0.014012 1.075178 0.036055 0.276593 0.000000 0.000000 0.000000 1.525850 0.287375 -0.157081 0.141356 -1.451274 -0.374617 3.996432 9.359749 1.772348 4.219304 -8.557573 1.923062 0.000000 0.000000 0.000000 0.000000 0.000000 0.000000 0.586434 1.119505 0.015705 -0.320564 -2.979815 -0.032476 -2.170943 20.513187 -5.236374 6.955420 -0.351798 5.838819 0.000000 0.000000 0.000000 0.000000 0.000000 0.000000 -0.662954 1.964024 69.360421 -1.551703 -0.975958 0.220871 0.426303 0.803427 -0.205642 0.000000 0.000000 0.000000 -0.437737 2.041836 69.700692 -2.107931 -0.859242 -0.084570 -35.887311 -19.708715 -6.820868 0.000000 0.000000 0.000000
-104.054587 74.345874 344.154900 -0.548535 -1.285155 -69.296178 -0.009827 -0.043584 69.282703 -0.076658 0.029784 -0.015945 1.286659 -0.030721 0.312381 0.000000 0.000000 0.000000 1.683688 0.396287 -0.176886 0.428252 -1.579553 -0.425382 3.605125 11.116787 1.865286 4.606610 -10.555262 2.223291 0.000000 0.000000 0.000000 0.000000 0.000000 0.000000 0.668913 1.261855 0.017402 -0.389733 -3.266475 -0.046605 -2.009231 22.453744 -5.660920 7.411220 -0.959679 6.373570 0.000000 0.000000 0.000000 0.000000 0.000000 0.000000 -0.584751 2.078338 69.315441 -1.567428 -1.029638 0.246025 0.383093 1.031794 -0.280984 0.000000 0.000000 0.000000 -0.482710 2.311803 69.646803 -2.374970 -1.174019 -0.019379 -35.463664 -19.249931 -6.479764 0.000000 0.000000 0.000000
-104.135571 74.288053 343.786857 -0.669109 -1.327739 -69.190740 -0.036844 -0.012574 69.172303 -0.072785 0.045234 -0.020142 1.574132 -0.272400 0.337301 0.000000 0.000000 0.000000 1.820556 0.550418 -0.210932 1.037770 -1.711365 -0.450402 2.119911 13.053691 1.890657 4.401815 -13.752333 2.204932 0.000000 0.000000 0.000000 0.000000 0.000000 0.000000 0.766038 1.252940 0.024034 -0.468555 -3.225815 -0.068033 -1.992806 22.887806 -5.784085 7.818060 -3.158402 6.651887 0.000000 0.000000 0.000000 0.000000 0.000000 0.000000 -0.180024 2.118382 69.317234 -1.510766 -0.868470 0.220584 0.269665 1.277038 -0.367940 0.000000 0.000000 0.000000 -0.527682 2.628183 69.553862 -2.549109 -1.835040 0.163556 -24.673266 -13.331118 -3.154572 0.000000 0.000000 0.000000
-104.139438 74.247412 343.391716 -0.709224 -1.359726 -68.925339 -0.025729 -0.021504 68.905152 -0.075760 0.026004 -0.021400 1.755646 -0.379529 0.354599 0.000000 0.000000 0.000000 1.784133 0.729461 -0.202306 1.736505 -1.625455 -0.490878 0.271771 14.597462 1.863960 4.163855 -15.475626 1.979032 0.000000 0.000000 0.000000 0.000000 0.000000 0.000000 0.813523 1.317910 0.025331 -0.542178 -3.275045 -0.086881 -0.665760 21.861676 -5.308112 7.120229 -5.098438 5.688823 0.000000 0.000000 0.000000 0.000000 0.000000 0.000000 0.137184 1.895114 69.158070 -1.175104 -0.718476 0.209020 0.075795 1.528904 -0.463715 0.000000 0.000000 0.000000 -0.554693 2.728169 69.288655 -2.604802 -2.313448 0.321283 -10.357086 -4.626481 -0.780755 0.000000 0.000000 0.000000
-104.088652 74.242962 342.981689 -0.689873 -1.334889 -68.578499 -0.033956 -0.040835 68.558624 -0.072723 0.011955 -0.021391 1.885406 -0.473446 0.332142 0.000000 0.000000 0.000000 1.671154 0.785740 -0.176103 2.292885 -1.337630 -0.506379 -1.633919 15.156971 1.746660 3.865206 -17.179355 1.611951 0.000000 0.000000 0.000000 0.000000 0.000000 0.000000 0.812246 1.306704 0.025563 -0.689099 -2.936155 -0.129759 0.236237 18.343876 -4.239255 5.196176 -6.551694 4.306004 0.000000 0.000000 0.000000 0.000000 0.000000 0.000000 0.406659 1.470510 68.911893 -0.661553 -0.601044 0.208838 -0.382246 2.023600 0.294170 0.000000 0.000000 0.000000 -0.229168 2.634521 69.009253 -2.711967 -2.161491 0.300660 -3.100178 0.039359 -0.197564 0.000000 0.000000 0.000000
-103.967255 74.222037 342.605553 -0.584441 -1.325866 -68.236116 -0.015735 -0.064570 68.220748 -0.055257 -0.012846 -0.015837 1.881293 -0.449354 0.282808 0.000000 0.000000 0.000000 1.428188 0.960697 -0.161945 2.468261 -1.022089 -0.456306 -3.414814 15.359802 1.505067 3.950672 -17.617480 1.331874 0.000000 0.000000 0.000000 0.000000 0.000000 0.000000 0.704932 1.348338 0.017418 -0.741484 -2.553123 -0.147797 1.847575 15.623248 -3.247695 1.429643 -9.851760 3.021815 0.000000 0.000000 0.000000 0.000000 0.000000 0.000000 0.443885 0.868383 68.637395 0.026636 -0.655585 0.258797 -0.628235 2.402295 0.381892 0.000000 0.000000 0.000000 -0.255080 2.279447 68.629186 -2.423542 -2.391630 0.464263 1.592834 3.349993 -0.238361 0.000000 0.000000 0.000000
-103.816315 74.178078 342.293735 -0.425354 -1.305822 -68.014794 0.021192 -0.088126 68.006621 -0.032145 -0.044085 -0.007059 1.738926 -0.789745 0.438423 0.000000 0.000000 0.000000 0.531045 1.402647 0.004723 2.905912 -0.906136 -0.491044 -5.298847 15.053472 1.107188 5.653114 -16.537477 1.836854 0.000000 0.000000 0.000000 0.000000 0.000000 0.000000 0.531045 1.402647 0.004723 -0.583887 -2.076995 -0.112930 2.902590 14.094294 -2.690302 0.596284 -11.256285 2.121133 0.000000 0.000000 0.000000 0.000000 0.000000 0.000000 0.280991 0.183295 68.439831 0.769872 -0.874552 0.353013 -0.817808 2.754078 0.379558 0.000000 0.000000 0.000000 -0.578234 1.795129 68.283434 -1.869810 -2.993290 0.778518 4.101260 5.422686 -0.544009 0.000000 0.000000 0.000000
-103.629662 74.096849 342.041884 -0.211749 -1.331617 -67.945085 0.050653 -0.097664 67.947186 -0.007976 -0.061534 0.004824 1.444351 -1.136020 0.641880 0.000000 0.000000 0.000000 0.291472 1.476725 -0.012480 2.422059 -0.460715 -0.364974 -7.020453 14.543066 0.638355 7.319752 -14.819937 2.333853 0.000000 0.000000 0.000000 0.000000 0.000000 0.000000 0.291472 1.476725 -0.012480 -0.368527 -1.635990 -0.064276 4.312073 14.141320 -2.505757 -0.739179 -14.682363 1.549807 0.000000 0.000000 0.000000 0.000000 0.000000 0.000000 -0.058945 -0.555527 68.364636 1.581495 -1.155063 0.467600 -1.004869 3.066682 0.358433 0.000000 0.000000 0.000000 -1.154709 0.696239 67.949641 -0.588594 -3.734948 1.322277 4.434713 6.385173 -0.853707 0.000000 0.000000 0.000000
-103.468733 74.005091 341.857117 0.005129 -1.446635 -67.970455 0.075460 -0.110312 67.983967 0.005199 -0.070805 0.016802 1.342136 -1.186856 0.657607 0.000000 0.000000 0.000000 0.064472 1.628731 -0.030265 1.701277 -0.027852 -0.208876 -8.876371 14.097779 0.062811 9.967221 -12.145807 3.320912 0.000000 0.000000 0.000000 0.000000 0.000000 0.000000 0.064472 1.628731 -0.030265 0.001925 -1.020932 0.018260 5.958539 15.685134 -2.815009 -3.435207 -18.596687 1.248929 0.000000 0.000000 0.000000 0.000000 0.000000 0.000000 -0.565039 -1.184307 68.349768 2.338094 -1.541018 0.616114 -1.177928 3.368264 0.310061 0.000000 0.000000 0.000000 -2.091812 0.812191 67.800870 -0.285529 -5.141656 1.768265 2.161834 5.819102 -0.831681 0.000000 0.000000 0.000000
